<?xml version="1.0" encoding="UTF-8"?>
<svg xmlns="http://www.w3.org/2000/svg" xmlns:xlink="http://www.w3.org/1999/xlink" width="30px" height="30px" viewBox="0 0 30 30" version="1.1">
<g id="surface1">
<path style=" stroke:none;fill-rule:nonzero;fill:rgb(60%,60%,60%);fill-opacity:1;" d="M 14.84375 1.640625 C 11.28125 1.644531 7.867188 3.0625 5.347656 5.582031 C 2.828125 8.101562 1.410156 11.515625 1.40625 15.082031 C 1.410156 18.640625 2.828125 22.058594 5.347656 24.574219 C 7.867188 27.09375 11.28125 28.511719 14.84375 28.511719 C 18.40625 28.507812 21.820312 27.09375 24.339844 24.574219 C 26.859375 22.054688 28.277344 18.640625 28.28125 15.078125 C 28.277344 11.515625 26.859375 8.101562 24.339844 5.582031 C 21.820312 3.0625 18.40625 1.644531 14.84375 1.640625 Z M 19.585938 19.371094 L 15.371094 22.179688 L 15.367188 22.183594 C 15.210938 22.289062 15.03125 22.34375 14.84375 22.34375 C 14.660156 22.34375 14.476562 22.289062 14.324219 22.183594 L 14.246094 22.128906 L 10.105469 19.371094 C 9.898438 19.234375 9.753906 19.019531 9.707031 18.777344 C 9.65625 18.535156 9.707031 18.28125 9.84375 18.074219 C 9.980469 17.867188 10.195312 17.722656 10.441406 17.671875 C 10.683594 17.625 10.9375 17.675781 11.148438 17.8125 L 13.90625 19.652344 L 13.90625 8.75 C 13.90625 8.625 13.929688 8.503906 13.976562 8.390625 C 14.023438 8.277344 14.09375 8.171875 14.179688 8.085938 C 14.269531 8 14.371094 7.929688 14.484375 7.882812 C 14.601562 7.835938 14.722656 7.8125 14.84375 7.8125 C 15.09375 7.8125 15.332031 7.910156 15.507812 8.085938 C 15.683594 8.261719 15.78125 8.5 15.78125 8.75 L 15.78125 19.652344 L 18.542969 17.8125 C 18.75 17.675781 19.003906 17.625 19.246094 17.671875 C 19.492188 17.722656 19.703125 17.867188 19.84375 18.074219 C 19.980469 18.28125 20.03125 18.53125 19.980469 18.777344 C 19.933594 19.019531 19.789062 19.234375 19.585938 19.371094 Z M 19.585938 19.371094 "/>
</g>
</svg>
